<?xml version="1.0" standalone="no"?><!DOCTYPE svg PUBLIC "-//W3C//DTD SVG 1.1//EN" "http://www.w3.org/Graphics/SVG/1.1/DTD/svg11.dtd"><svg t="1587529046964" class="icon" viewBox="0 0 1024 1024" version="1.1" xmlns="http://www.w3.org/2000/svg" p-id="898" xmlns:xlink="http://www.w3.org/1999/xlink" width="200" height="200"><defs><style type="text/css"></style></defs><path d="M885.65 646.08l-5.07-25.21c-0.17-0.85-0.1-1.73 0.2-2.54l3.35-9.02c1.91-5.15 2.23-10.7 0.92-16.03-4.13-16.82-20.68-80.28-60.23-190.99-15.11-42.31-29.75-80.81-43.51-114.44-18.25-44.59-44.94-84.3-79.35-118.02l-57.06-55.92c-2.32-3.02-12.75-16.61-21.06-28.17-9.69-13.47-25.39-21.52-42.01-21.52H442.05c-16.62 0-32.32 8.04-42.01 21.52-8.3 11.54-18.73 25.15-21.06 28.17l-57 55.87c-34.39 33.69-61.09 73.41-79.36 118.03-13.84 33.81-28.5 72.33-43.56 114.47-39.22 109.76-56.01 173.92-60.22 190.97-1.32 5.34-1.01 10.9 0.91 16.06l3.29 8.86c0.31 0.84 0.37 1.75 0.18 2.63l-4.69 21.2c-3.34 15.1 5.69 30.27 20.55 34.54l64.24 18.44c13.3 3.82 27.39-2.65 33.17-15.22l10.39-22.61h4.08c-1.8 120.85 3.42 227.43 5.53 264.47 0.71 12.39 9.7 22.77 21.86 25.23 22.22 4.49 78.97 12.03 209.51 12.03 132.73 0 194.57-7.72 219.61-12.33 12.55-2.31 21.75-12.8 22.39-25.52 1.87-37.34 6.39-144.31 3.94-264h3.64l10.13 23.12c5.46 12.47 19.11 19.2 32.33 15.95l64-15.75c15.3-3.77 24.86-18.82 21.75-34.27z" fill="#FA464D" p-id="899"></path><path d="M520.39 426.23c0-11.03-8.97-20-20-20s-20 8.97-20 20 8.97 20 20 20 20-8.98 20-20z" fill="#FFD24D" p-id="900"></path><path d="M315.13 525.67l3.86 19.46c0.19-0.04 19.82-3.81 54.56-3.81 34.35 0 60.46 7.52 60.72 7.6l5.6-19.04c-1.16-0.34-28.95-8.4-66.32-8.4-36.92 0-57.56 4.02-58.42 4.19zM652.81 521.48c-37.37 0-65.15 8.06-66.32 8.4l5.61 19.03c0.26-0.08 26.17-7.6 60.71-7.6 34.74 0 54.37 3.77 54.55 3.81l3.87-19.46c-0.86-0.16-21.5-4.18-58.42-4.18z" fill="#FFFFFF" p-id="901"></path><path d="M885.66 646.09l-5.07-25.21c-0.17-0.85-0.1-1.73 0.2-2.54l3.35-9.03c1.91-5.15 2.23-10.7 0.92-16.03-4.13-16.81-20.68-80.28-60.23-190.99-15.11-42.31-29.75-80.81-43.51-114.44-18.24-44.59-44.94-84.3-79.35-118.02l-57.06-55.92c-2.32-3.02-12.76-16.62-21.06-28.17-9.69-13.48-25.39-21.52-42.01-21.52H442.05c-16.62 0-32.32 8.05-42.01 21.52-8.3 11.55-18.74 25.15-21.06 28.17l-57 55.87c-34.38 33.7-61.08 73.41-79.36 118.03-13.85 33.81-28.5 72.33-43.56 114.47-39.22 109.76-56.01 173.92-60.22 190.97-1.32 5.35-1 10.9 0.91 16.06l3.29 8.86c0.31 0.84 0.38 1.75 0.18 2.63l-4.69 21.2c-3.34 15.1 5.69 30.27 20.55 34.54l87.37 25.08 6.26-21.8-87.37-25.08c-3.38-0.97-5.42-4.41-4.67-7.84l4.69-21.2c1.14-5.15 0.77-10.48-1.06-15.42l-3.29-8.86c-0.33-0.88-0.38-1.83-0.16-2.74 4.15-16.79 20.69-80.02 59.56-188.77 14.94-41.82 29.48-80.01 43.19-113.51 17.1-41.75 42.08-78.91 74.24-110.43l57.57-56.42c0.37-0.36 0.72-0.75 1.03-1.16 0.5-0.65 12.42-16.08 22.01-29.42 5.44-7.57 14.26-12.08 23.6-12.08h139.78c9.34 0 18.16 4.52 23.6 12.08 9.59 13.34 21.51 28.77 22.01 29.42 0.32 0.41 0.66 0.8 1.03 1.16l57.62 56.47c32.19 31.55 57.16 68.69 74.23 110.41 13.63 33.31 28.15 71.49 43.15 113.48 39.19 109.7 55.5 172.22 59.56 188.77 0.22 0.91 0.17 1.85-0.16 2.73l-3.35 9.03a27.317 27.317 0 0 0-1.17 14.9l5.07 25.21a6.635 6.635 0 0 1-4.94 7.78l-86.88 21.38 5.42 22.02 86.88-21.38a29.259 29.259 0 0 0 21.76-34.26z" fill="#A8104D" p-id="902"></path><path d="M717.49 280.95l-21.65 6.75c0.17 0.54 16.8 56.29 29.83 243.36 11.35 162.84 4.05 338.81 1.54 388.86a4.653 4.653 0 0 1-3.84 4.35c-20.59 3.79-67.07 9.74-160.52 11.47 0.51-40.45 2.3-183.47 3.9-326.66 1.48-132.15-1.8-200.87-3.28-224.28-0.54-8.61-3.07-16.7-7.5-24.05-5.3-8.79-13.67-23.49-24.32-44.86 4.89-10.23 20.08-44.24 36.82-103.79 14.75-52.45 19.6-85.15 21.17-99.78l-22.53-2.55c-1.34 12.42-5.89 44.36-20.47 96.19-10.82 38.47-21.04 66.08-27.95 82.94-5.84-12.63-12.14-26.82-18.81-42.7-28.01-66.7-39.56-117.39-43.27-136.43l-22.6 2.55c3.48 18.37 15.28 71.99 44.96 142.67 26.49 63.07 47.44 100.67 57.57 117.47 2.53 4.2 3.98 8.83 4.29 13.77 1.46 23.16 4.71 91.21 3.24 222.6-1.61 143.91-3.41 287.64-3.91 327.23-10.26 0.1-21.02 0.16-32.31 0.16-128.56 0-183.63-7.26-205.01-11.58a4.66 4.66 0 0 1-3.72-4.3c-2.83-49.47-11.23-223.77-0.77-389.36 11.98-189.67 27.99-242.72 28.14-243.2l-21.6-6.9c-0.69 2.15-16.92 54.78-29.17 248.66-10.54 166.86-2.08 342.29 0.76 392.08 0.71 12.39 9.7 22.77 21.86 25.23 22.22 4.49 78.97 12.03 209.51 12.03 132.73 0 194.57-7.72 219.61-12.33 12.55-2.31 21.75-12.8 22.39-25.52 2.52-50.37 9.87-227.47-1.57-391.57-13.29-190.89-30.08-246.25-30.79-248.51z" fill="#A8104D" p-id="903"></path></svg>