<?xml version="1.0" standalone="no"?><!DOCTYPE svg PUBLIC "-//W3C//DTD SVG 1.1//EN" "http://www.w3.org/Graphics/SVG/1.1/DTD/svg11.dtd"><svg t="1587625389492" class="icon" viewBox="0 0 1024 1024" version="1.1" xmlns="http://www.w3.org/2000/svg" p-id="23961" width="24" height="24" xmlns:xlink="http://www.w3.org/1999/xlink"><defs><style type="text/css"></style></defs><path d="M623.51 295.6m-15 0a15 15 0 1 0 30 0 15 15 0 1 0-30 0Z" fill="#7B808B" p-id="23962"></path><path d="M992.39 434.43L537.7 50.35a40 40 0 0 0-51.62 0L31.39 434.43A40 40 0 0 0 83 495.54l62.38-52.69V881A101.59 101.59 0 0 0 247 982.61h529.8A101.59 101.59 0 0 0 878.39 881V442.85l62.38 52.69a40 40 0 0 0 51.62-61.12zM776.8 902.61H247A21.59 21.59 0 0 1 225.39 881V375.28l286.5-242 286.5 242V881a21.59 21.59 0 0 1-21.59 21.61z" fill="#7B808B" p-id="23963"></path><path d="M317.35 345.93l-16.55 14a15 15 0 1 0 19.36 22.92l16.55-14L512 220.79l59.66 50.39A15 15 0 1 0 591 248.26l-69.32-58.56a15 15 0 0 0-19.36 0zM371.39 566.61v201a40 40 0 0 0 40 40h201a40 40 0 0 0 40-40v-201a40 40 0 0 0-40-40h-201a40 40 0 0 0-40 40z m201 161h-121v-121h121z" fill="#7B808B" p-id="23964"></path></svg>