<?xml version="1.0" standalone="no"?><!DOCTYPE svg PUBLIC "-//W3C//DTD SVG 1.1//EN" "http://www.w3.org/Graphics/SVG/1.1/DTD/svg11.dtd"><svg t="1587624888645" class="icon" viewBox="0 0 1027 1024" version="1.1" xmlns="http://www.w3.org/2000/svg" p-id="21626" xmlns:xlink="http://www.w3.org/1999/xlink" width="24.0703125" height="24"><defs><style type="text/css"></style></defs><path d="M260.259596 263.45005A249.873649 249.873649 0 0 1 510.133245 13.5764H760.278422v249.87365a249.873649 249.873649 0 1 1-499.747298 0z" fill="#00A0E9" p-id="21627"></path><path d="M434.444813 489.361352c-10.86112 0-21.518595-0.543056-32.108187-1.561286A249.873649 249.873649 0 0 0 760.278422 262.499702v-40.118263a332.62181 332.62181 0 0 1-325.833609 266.979913z" fill="#036EB8" p-id="21628"></path><path d="M599.330196 13.5764H510.133245a250.009413 250.009413 0 0 0-242.338747 310.89957A332.214518 332.214518 0 0 1 599.330196 13.5764z" fill="#FFFFFF" p-id="21629"></path><path d="M730.070931 395.752072a13.5764 13.5764 0 0 1-11.947232-20.025191 237.587007 237.587007 0 0 0 18.667551-45.141531 13.5764 13.5764 0 1 1 25.998806 7.670666 264.739808 264.739808 0 0 1-20.771892 50.368445 13.5764 13.5764 0 0 1-11.947233 7.127611z" fill="#231815" p-id="21630"></path><path d="M510.133245 526.900099a263.45005 263.45005 0 0 1 0-526.900099H773.854823v263.45005a13.5764 13.5764 0 0 1-27.152801 0V27.152801H510.133245a236.297249 236.297249 0 1 0 166.514551 403.965794 13.5764 13.5764 0 0 1 19.142724 19.278488 261.888764 261.888764 0 0 1-185.657275 76.503016z" fill="#231815" p-id="21631"></path><path d="M9.775008 574.145973m218.104873 0l564.506728 0q218.104872 0 218.104873 218.104872l0 0.067882q0 218.104872-218.104873 218.104873l-564.506728 0q-218.104872 0-218.104873-218.104873l0-0.067882q0-218.104872 218.104873-218.104872Z" fill="#FFF100" p-id="21632"></path><path d="M796.188001 574.145973H760.278422a218.104872 218.104872 0 0 1 218.104873 218.104872A218.104872 218.104872 0 0 1 760.278422 1010.4236h36.181107a218.172754 218.172754 0 0 0 218.172755-218.172755 218.172754 218.172754 0 0 0-218.444283-218.104872z" fill="#F8B62D" p-id="21633"></path><path d="M229.033875 574.145973h36.248989a218.172754 218.172754 0 0 0-218.172755 218.104872 218.172754 218.172754 0 0 0 218.172755 218.172755h-36.248989a218.172754 218.172754 0 0 1-218.104873-218.172755 218.172754 218.172754 0 0 1 218.104873-218.104872z" fill="#FFFFFF" p-id="21634"></path><path d="M796.188001 1024h-440.554193a13.5764 13.5764 0 0 1 0-27.152801h440.554193a204.596354 204.596354 0 0 0 0-409.124826H231.681273a204.596354 204.596354 0 0 0 0 409.124826 13.5764 13.5764 0 0 1 0 27.152801 231.749155 231.749155 0 0 1 0-463.430428h564.506728a231.749155 231.749155 0 0 1 0 463.430428z" fill="#231815" p-id="21635"></path></svg>